<svg width="24" height="27" viewBox="0 0 24 27" fill="none" xmlns="http://www.w3.org/2000/svg">
<path fill-rule="evenodd" clip-rule="evenodd" d="M20.6257 5.22499C16.7372 1.17343 10.6416 0.546576 6.06708 3.72783C1.4926 6.90909 -0.286489 13.0123 1.81796 18.3045C3.92241 23.5968 9.32419 26.6039 14.7194 25.4866C20.1146 24.3693 24.0004 19.4389 24.0001 13.7109C24 10.5283 22.7863 7.47603 20.6257 5.22499ZM18.9294 20.4294C15.8508 23.6384 11.024 24.1356 7.40121 21.6171C3.77846 19.0986 2.36901 14.2658 4.03498 10.0749C5.70094 5.88394 9.97821 3.50227 14.2506 4.38665C18.5229 5.27103 21.6002 9.1751 21.6001 13.7109C21.6003 16.2305 20.6396 18.6471 18.9294 20.4294ZM15.5397 8.72271C16.0173 8.22705 16.79 8.22705 17.2677 8.72271C17.7452 9.22296 17.7431 10.0316 17.2629 10.5291L14.2139 13.7049L17.2629 16.8817C17.6962 17.386 17.6763 18.1548 17.2176 18.6341C16.7588 19.1134 16.0206 19.1366 15.5349 18.6871L12.4849 15.5102L9.43599 18.6861C8.95425 19.1655 8.19294 19.1564 7.72186 18.6656C7.25079 18.1748 7.24249 17.3821 7.70319 16.8807L10.7521 13.7039L7.70319 10.5281C7.24249 10.0267 7.25079 9.23394 7.72186 8.74315C8.19294 8.25235 8.95425 8.24328 9.43599 8.72271L12.4897 11.8986L15.5397 8.72271Z" fill="#213878"/>
</svg>
