<svg width="24" height="24" viewBox="0 0 24 24" fill="none" xmlns="http://www.w3.org/2000/svg">
<path fill-rule="evenodd" clip-rule="evenodd" d="M12.5 18.5C12.5 17.9477 12.9477 17.5 13.5 17.5C14.0523 17.5 14.5 17.9477 14.5 18.5V21.5C14.5 22.6046 13.6046 23.5 12.5 23.5H2C0.89543 23.5 0 22.6046 0 21.5V2.5C0 1.39543 0.89543 0.500002 2 0.500002H12.5C13.6046 0.500002 14.5 1.39543 14.5 2.5V5.5C14.5 6.05229 14.0523 6.5 13.5 6.5C12.9477 6.5 12.5 6.05229 12.5 5.5V3C12.5 2.72386 12.2761 2.5 12 2.5H2.5C2.22386 2.5 2 2.72386 2 3V21C2 21.2761 2.22386 21.5 2.5 21.5H12C12.2761 21.5 12.5 21.2761 12.5 21V18.5ZM17.555 7.66901L23.555 11.669V11.668C23.8332 11.8535 24.0002 12.1657 24.0002 12.5C24.0002 12.8343 23.8332 13.1465 23.555 13.332L17.555 17.332C17.3907 17.4416 17.1975 17.5001 17 17.5C16.4509 17.4925 16.0075 17.0491 16 16.5V14H7C6.4641 14 5.96891 13.7141 5.70096 13.25C5.43301 12.7859 5.43301 12.2141 5.70096 11.75C5.96891 11.2859 6.4641 11 7 11H16V8.50001C16.0003 8.1313 16.2035 7.79268 16.5287 7.6189C16.8539 7.44512 17.2483 7.46438 17.555 7.66901Z" fill="#C1CFD9"/>
</svg>
