<svg width="1440" height="572" viewBox="0 0 1440 572" fill="none" xmlns="http://www.w3.org/2000/svg">
<mask id="mask0" mask-type="alpha" maskUnits="userSpaceOnUse" x="0" y="0" width="1440" height="572">
<rect width="1440" height="572" fill="#F7F8FC"/>
</mask>
<g mask="url(#mask0)">
<path fill-rule="evenodd" clip-rule="evenodd" d="M342.043 475.001C415.877 474.93 470.347 546.335 489.257 593.292C507.556 638.733 431.1 585.318 377.774 643.11C313.731 712.516 197.798 626.664 209.874 553.489C219.635 494.393 281.961 475.043 342.043 475.001Z" fill="#E6EEF2"/>
<path fill-rule="evenodd" clip-rule="evenodd" d="M1106.87 680.928C1035.53 661.887 1001.4 578.817 995.289 528.566C989.375 479.938 1049.4 551.32 1115.87 509.3C1195.69 458.834 1285.45 571.766 1254.85 639.323C1230.13 693.879 1164.92 696.438 1106.87 680.928Z" fill="#E6EEF2"/>
<path fill-rule="evenodd" clip-rule="evenodd" d="M392.62 142.552C442.259 73.3031 554.874 -4.25653 592.05 54.0236C669.248 175.047 705.463 16.4915 804.172 22.1485C902.88 27.8055 843.172 113.951 957.247 145.069C1071.32 176.188 1046.76 364.955 938.147 329.685C829.537 294.413 841.873 368.945 786.897 388.288C731.923 407.629 731.061 335.115 644.789 357.86C559.952 380.226 439.216 421.304 378.606 371.155C329.306 330.364 340.507 215.25 392.62 142.552Z" fill="#2C3551"/>
<path fill-rule="evenodd" clip-rule="evenodd" d="M138.995 151.676C144.943 243.318 230.118 233.636 204.056 285.619C182.576 328.464 38.1361 527.521 -25.0374 440.01C-56.7556 396.073 -33.8669 355.865 -38.9005 301.889C-44.8366 238.243 -129.414 166.175 -83.2966 121.952C-34.8361 75.4834 134.645 84.6406 138.995 151.676Z" fill="#FFD049"/>
<path fill-rule="evenodd" clip-rule="evenodd" d="M1465.41 120.893C1566.8 75.7182 1560.87 185.555 1591.66 255.213C1671.92 436.771 1298.12 484.94 1349.85 410.208C1401.57 335.475 1315.96 302.857 1225.2 302.857C1071.03 302.857 1122.07 59.2168 1276.48 109.951C1359.66 137.281 1364.01 166.067 1465.41 120.893Z" fill="#DD234B"/>
</g>
</svg>
